<svg width="1305" height="909" viewBox="0 0 1305 909" fill="none" xmlns="http://www.w3.org/2000/svg">
<path d="M1.00002 18C185 -43.5 279.034 63.1429 207 233C126 424 348 560.5 416 389C484 217.5 846.564 376.097 982.5 286C1283.5 86.5 1421 542 1184.5 516.5C945.52 490.733 1122.5 817 908 817C812.51 817 666 575.5 530 657C395.135 737.82 304 984.5 126 885.5C15.4307 824.004 -9.44566 803.545 -6.77175 799.5H-49.5V18H1.00002Z" fill="url(#paint0_linear_648_285)"/>
<g clip-path="url(#clip0_648_285)">
<rect x="1154.9" y="318.728" width="4" height="32" transform="rotate(-45 1154.9 318.728)" fill="#FFA862"/>
<rect x="1177.53" y="315.9" width="4" height="32" transform="rotate(45 1177.53 315.9)" fill="#FFA862"/>
</g>
<g clip-path="url(#clip1_648_285)">
<rect x="901.899" y="377.728" width="4" height="32" transform="rotate(-45 901.899 377.728)" fill="#FFA862"/>
<rect x="924.527" y="374.9" width="4" height="32" transform="rotate(45 924.527 374.9)" fill="#FFA862"/>
</g>
<g clip-path="url(#clip2_648_285)">
<rect x="901.899" y="663.728" width="4" height="32" transform="rotate(-45 901.899 663.728)" fill="#FFA862"/>
<rect x="924.527" y="660.9" width="4" height="32" transform="rotate(45 924.527 660.9)" fill="#FFA862"/>
</g>
<g clip-path="url(#clip3_648_285)">
<rect x="499.9" y="412.728" width="4" height="32" transform="rotate(-45 499.9 412.728)" fill="#FFA862"/>
<rect x="522.527" y="409.9" width="4" height="32" transform="rotate(45 522.527 409.9)" fill="#FFA862"/>
</g>
<g clip-path="url(#clip4_648_285)">
<rect x="1032" y="454" width="4" height="32" fill="#FFA862"/>
<rect x="1050" y="468" width="4" height="32" transform="rotate(90 1050 468)" fill="#FFA862"/>
</g>
<g clip-path="url(#clip5_648_285)">
<rect x="707" y="351" width="4" height="32" fill="#FFA862"/>
<rect x="725" y="365" width="4" height="32" transform="rotate(90 725 365)" fill="#FFA862"/>
</g>
<g clip-path="url(#clip6_648_285)">
<rect x="771" y="532" width="4" height="32" fill="#FFA862"/>
<rect x="789" y="546" width="4" height="32" transform="rotate(90 789 546)" fill="#FFA862"/>
</g>
<g clip-path="url(#clip7_648_285)">
<rect x="50.8995" y="92.7279" width="4" height="32" transform="rotate(-45 50.8995 92.7279)" fill="#FF6F61"/>
<rect x="73.5269" y="89.8995" width="4" height="32" transform="rotate(45 73.5269 89.8995)" fill="#FF6F61"/>
</g>
<g clip-path="url(#clip8_648_285)">
<rect x="50.8995" y="537.728" width="4" height="32" transform="rotate(-45 50.8995 537.728)" fill="#FF6F61"/>
<rect x="73.5269" y="534.9" width="4" height="32" transform="rotate(45 73.5269 534.9)" fill="#FF6F61"/>
</g>
<g clip-path="url(#clip9_648_285)">
<rect x="283.9" y="739.728" width="4" height="32" transform="rotate(-45 283.9 739.728)" fill="#FF6F61"/>
<rect x="306.527" y="736.9" width="4" height="32" transform="rotate(45 306.527 736.9)" fill="#FF6F61"/>
</g>
<g clip-path="url(#clip10_648_285)">
<rect x="116" y="325" width="4" height="32" fill="#FF6F61"/>
<rect x="134" y="339" width="4" height="32" transform="rotate(90 134 339)" fill="#FF6F61"/>
</g>
<g clip-path="url(#clip11_648_285)">
<rect x="114" y="740" width="4" height="32" fill="#FF6F61"/>
<rect x="132" y="754" width="4" height="32" transform="rotate(90 132 754)" fill="#FF6F61"/>
</g>
<g clip-path="url(#clip12_648_285)">
<rect x="201" y="493" width="4" height="32" fill="#FF6F61"/>
<rect x="219" y="507" width="4" height="32" transform="rotate(90 219 507)" fill="#FF6F61"/>
</g>
<g clip-path="url(#clip13_648_285)">
<rect x="354" y="588" width="4" height="32" fill="#FF6F61"/>
<rect x="372" y="602" width="4" height="32" transform="rotate(90 372 602)" fill="#FF6F61"/>
</g>
<g clip-path="url(#clip14_648_285)">
<rect x="539" y="532" width="4" height="32" fill="#FF6F61"/>
<rect x="557" y="546" width="4" height="32" transform="rotate(90 557 546)" fill="#FF6F61"/>
</g>
<defs>
<linearGradient id="paint0_linear_648_285" x1="1139" y1="18.0003" x2="-50.0001" y2="909" gradientUnits="userSpaceOnUse">
<stop stop-color="#FF6F61"/>
<stop offset="1" stop-color="#FFAB61"/>
</linearGradient>
<clipPath id="clip0_648_285">
<rect width="32" height="32" fill="white" transform="translate(1145 328.627) rotate(-45)"/>
</clipPath>
<clipPath id="clip1_648_285">
<rect width="32" height="32" fill="white" transform="translate(892 387.627) rotate(-45)"/>
</clipPath>
<clipPath id="clip2_648_285">
<rect width="32" height="32" fill="white" transform="translate(892 673.627) rotate(-45)"/>
</clipPath>
<clipPath id="clip3_648_285">
<rect width="32" height="32" fill="white" transform="translate(490 422.627) rotate(-45)"/>
</clipPath>
<clipPath id="clip4_648_285">
<rect width="32" height="32" fill="white" transform="translate(1018 454)"/>
</clipPath>
<clipPath id="clip5_648_285">
<rect width="32" height="32" fill="white" transform="translate(693 351)"/>
</clipPath>
<clipPath id="clip6_648_285">
<rect width="32" height="32" fill="white" transform="translate(757 532)"/>
</clipPath>
<clipPath id="clip7_648_285">
<rect width="32" height="32" fill="white" transform="translate(41 102.627) rotate(-45)"/>
</clipPath>
<clipPath id="clip8_648_285">
<rect width="32" height="32" fill="white" transform="translate(41 547.627) rotate(-45)"/>
</clipPath>
<clipPath id="clip9_648_285">
<rect width="32" height="32" fill="white" transform="translate(274 749.627) rotate(-45)"/>
</clipPath>
<clipPath id="clip10_648_285">
<rect width="32" height="32" fill="white" transform="translate(102 325)"/>
</clipPath>
<clipPath id="clip11_648_285">
<rect width="32" height="32" fill="white" transform="translate(100 740)"/>
</clipPath>
<clipPath id="clip12_648_285">
<rect width="32" height="32" fill="white" transform="translate(187 493)"/>
</clipPath>
<clipPath id="clip13_648_285">
<rect width="32" height="32" fill="white" transform="translate(340 588)"/>
</clipPath>
<clipPath id="clip14_648_285">
<rect width="32" height="32" fill="white" transform="translate(525 532)"/>
</clipPath>
</defs>
</svg>
