<svg width="256" height="256" viewBox="0 0 256 256" fill="none" xmlns="http://www.w3.org/2000/svg">
<path d="M73.6575 8H182.686" stroke="#FF6F61" stroke-width="16" stroke-miterlimit="10"/>
<path d="M95.4861 8V117.143L30.0003 182.514V226.171C29.9852 229.042 30.5394 231.887 31.631 234.542C32.7227 237.198 34.33 239.61 36.36 241.64C38.39 243.67 40.8024 245.277 43.4576 246.369C46.1128 247.461 48.9581 248.015 51.8289 248H204.515C207.386 248.015 210.231 247.461 212.886 246.369C215.541 245.277 217.954 243.67 219.984 241.64C222.014 239.61 223.621 237.198 224.713 234.542C225.804 231.887 226.359 229.042 226.343 226.171V182.514L160.858 117.143V8" stroke="#FF6F61" stroke-width="16" stroke-miterlimit="10"/>
<path d="M39.0288 173.714C54.5716 178.285 58.2287 193.486 79.0286 193.486C103.6 193.486 103.6 171.657 128.057 171.657C152.514 171.657 152.743 193.486 177.314 193.486C198.114 193.486 201.314 177.6 216.857 173.029" stroke="#FF6F61" stroke-width="16" stroke-miterlimit="10"/>
<path d="M139.029 117.143H160.857" stroke="#FF6F61" stroke-width="16" stroke-miterlimit="10"/>
<path d="M139.029 84.3427H160.857" stroke="#FF6F61" stroke-width="16" stroke-miterlimit="10"/>
<path d="M139.029 51.6573H160.857" stroke="#FF6F61" stroke-width="16" stroke-miterlimit="10"/>
</svg>
